<svg width="446" height="446" viewBox="0 0 446 446" fill="none" xmlns="http://www.w3.org/2000/svg">
<circle cx="223" cy="223" r="223" fill="black"/>
<circle cx="223" cy="223" r="200" fill="white"/>
<path d="M167.473 263H278.249L319 353.109H255.577L222 381L188.423 353.109H125L167.473 263Z" fill="black"/>
<path d="M143 155L305 155L277.62 255H168.099L143 155Z" fill="black"/>
<path d="M306.123 169.682C309.615 161.572 315.331 142.687 318.333 132.769C319.175 129.988 319.803 127.912 320.109 126.976C323.339 117.102 317.176 106.818 307.248 103.571C297.32 100.324 286.271 104.978 283.042 114.851C282.699 115.899 281.888 118.218 280.812 121.296C279.51 125.021 277.819 129.858 276.101 134.891C273.053 143.82 269.847 153.578 269.057 157.712C268.834 158.877 268.488 159.977 268.069 161.305C267.887 161.882 267.692 162.503 267.487 163.191C266.884 165.216 266.233 167.764 266.428 170.427C266.638 173.291 267.801 176.05 270.329 178.459C272.732 180.749 276.222 182.587 280.902 184.118C289.148 186.815 295.239 187.025 299.505 182.87C301.373 181.051 302.512 178.703 303.395 176.58C303.783 175.646 304.164 174.648 304.536 173.669C304.598 173.509 304.658 173.349 304.719 173.189C305.16 172.034 305.611 170.872 306.123 169.682Z" fill="black" stroke="white" stroke-width="8"/>
<path d="M268.029 154.851C270.343 148.816 273.815 137.161 276.744 126.456C278.216 121.074 279.568 115.871 280.586 111.654C281.564 107.603 282.315 104.143 282.48 102.402L282.484 102.365C282.489 102.315 282.496 102.248 282.503 102.166C282.518 102.002 282.536 101.776 282.552 101.497C282.584 100.939 282.611 100.16 282.594 99.2241C282.559 97.3705 282.349 94.8108 281.616 92.0979C280.137 86.6228 276.331 80.09 267.413 78.2274C257.892 75.9358 251.057 77.9234 246.446 81.4683C242.026 84.8671 240.111 89.3403 239.542 91.4381C239.39 92.0011 238.794 95.0367 238.03 99.0242C237.238 103.157 236.209 108.613 235.16 114.293C233.076 125.577 230.87 137.961 230.324 142.433C230.139 143.944 229.471 145.528 228.511 147.692C228.472 147.781 228.432 147.871 228.391 147.963C227.567 149.815 226.438 152.351 226.246 154.949C226.009 158.164 227.17 161.21 230.173 163.731C232.895 166.016 237.071 167.829 242.893 169.406C248.129 170.824 252.129 171.618 255.195 171.663C258.386 171.71 261.249 170.945 263.28 168.552C264.964 166.568 265.583 163.913 266.031 161.988L266.045 161.931C266.103 161.68 266.161 161.429 266.219 161.178C266.674 159.2 267.144 157.158 268.029 154.851Z" fill="black" stroke="white" stroke-width="8"/>
<path d="M231.087 137.312C232.255 130.563 233.121 118.577 233.747 107.775C234.097 101.739 234.372 96.0873 234.584 91.7346C234.759 88.1402 234.89 85.4318 234.986 84.125C235.871 71.9912 225.093 62.43 212.5 61.5116C199.908 60.5931 187.857 68.4893 186.972 80.623C186.876 81.9293 186.599 84.8408 186.232 88.7008C185.788 93.3694 185.212 99.4255 184.666 105.707C183.694 116.884 182.792 129.013 183.119 133.973C183.213 135.405 183.128 136.804 183.027 138.467C182.983 139.181 182.937 139.944 182.9 140.779C182.791 143.285 182.794 146.34 183.856 149.269C184.989 152.393 187.196 155.051 190.835 156.97C194.327 158.811 199.048 159.932 205.289 160.387C216.321 161.192 223.356 159.74 227.074 154.209C228.767 151.69 229.437 148.743 229.867 146.044C230.055 144.864 230.212 143.612 230.367 142.377C230.393 142.174 230.418 141.972 230.443 141.771C230.628 140.312 230.823 138.838 231.087 137.312Z" fill="black" stroke="white" stroke-width="8"/>
<path d="M187.313 150.167C187.63 143.015 186.92 130.472 186.117 119.181C185.669 112.876 185.193 106.977 184.827 102.432C184.524 98.678 184.296 95.8485 184.219 94.4796C183.513 81.8465 170.94 73.4919 157.695 74.2326C144.449 74.9733 132.887 84.6775 133.593 97.3107C133.669 98.679 133.772 101.739 133.908 105.794C134.072 110.698 134.284 117.057 134.559 123.644C135.048 135.373 135.74 148.066 136.756 153.156C137.051 154.636 137.151 156.11 137.27 157.852C137.321 158.597 137.375 159.392 137.449 160.257C137.673 162.872 138.09 166.018 139.594 168.887C142.965 175.318 150.354 178.137 163.464 177.404C175.188 176.748 182.27 174.304 185.384 168.181C186.813 165.37 187.121 162.247 187.209 159.391C187.247 158.143 187.243 156.825 187.24 155.523C187.239 155.31 187.238 155.096 187.238 154.884C187.235 153.346 187.241 151.788 187.313 150.167Z" fill="black" stroke="white" stroke-width="8"/>
<path d="M211.521 181.605L211.608 181.535L211.691 181.46C215.228 178.244 218.343 177.168 221.021 177.034C223.791 176.895 226.56 177.741 229.378 179.171C231.688 180.342 233.771 181.757 235.84 183.162C236.348 183.508 236.855 183.852 237.365 184.193C238.582 185.006 239.888 185.841 241.151 186.449C242.339 187.02 244.036 187.669 245.904 187.48C249.292 187.136 252.298 185.344 254.689 183.241C257.121 181.102 259.227 178.374 260.841 175.573C262.448 172.784 263.678 169.73 264.201 166.867C264.686 164.21 264.732 160.724 262.623 158.088C257.379 151.533 246.213 142.242 235.001 134.669C229.346 130.849 223.538 127.37 218.289 124.828C213.21 122.369 208.086 120.5 204 120.5C202.796 120.5 201.655 120.896 200.862 121.218C199.967 121.583 198.995 122.077 197.997 122.64C195.995 123.769 193.594 125.338 190.982 127.165C185.743 130.829 179.376 135.725 173.133 140.715C160.749 150.613 148.375 161.265 146.101 163.657C144.233 165.621 142.444 167.541 141.244 169.908C139.972 172.417 139.5 175.11 139.5 178.5C139.5 182.53 140.657 187.01 141.687 190.255C142.218 191.927 142.747 193.37 143.144 194.397C143.343 194.913 143.511 195.327 143.63 195.616C143.69 195.761 143.738 195.875 143.772 195.956L143.773 195.959C143.777 195.969 143.781 195.98 143.785 195.992C143.822 196.093 143.874 196.235 143.942 196.413C144.076 196.768 144.271 197.266 144.521 197.864C145.019 199.054 145.752 200.675 146.684 202.368C147.606 204.041 148.787 205.901 150.209 207.497C151.522 208.971 153.324 210.541 155.618 211.262C156.76 211.735 158.29 212.019 159.761 212.192C161.595 212.406 163.899 212.506 166.52 212.37C171.74 212.098 178.371 210.885 185.156 207.642C191.373 204.95 196.036 199.663 199.962 194.783C200.789 193.755 201.584 192.746 202.358 191.763C205.497 187.777 208.293 184.226 211.521 181.605Z" fill="black" stroke="white" stroke-width="8"/>
</svg>
