<svg width="97" height="13" viewBox="0 0 97 13" fill="none" xmlns="http://www.w3.org/2000/svg">
<path d="M0.952239 3.71234C0.952239 3.22773 1.07212 2.78648 1.31187 2.38859C1.55672 1.9907 1.8832 1.67443 2.29129 1.43978C2.70448 1.20003 3.15848 1.08015 3.65329 1.08015H9.28494V2.68701H3.65329C3.35742 2.68701 3.10237 2.79158 2.88812 3.00073C2.67387 3.20987 2.56675 3.46238 2.56675 3.75825V4.50811C2.56675 4.77847 2.67387 5.01057 2.88812 5.20442C3.10237 5.39826 3.35742 5.49518 3.65329 5.49518H7.11951C7.61942 5.49518 8.07342 5.61506 8.48151 5.85481C8.8896 6.08946 9.21353 6.40828 9.45328 6.81127C9.69813 7.20916 9.82056 7.65041 9.82056 8.13502V9.32103C9.82056 9.80564 9.69813 10.2494 9.45328 10.6524C9.21353 11.0503 8.8896 11.3691 8.48151 11.6089C8.07342 11.8435 7.61942 11.9609 7.11951 11.9609H0.959891V10.3464H7.11951C7.42048 10.3464 7.67553 10.2469 7.88468 10.0479C8.09893 9.8439 8.20605 9.59904 8.20605 9.31338V8.14267C8.20605 7.85701 8.09893 7.61215 7.88468 7.40811C7.67553 7.20406 7.42048 7.10204 7.11951 7.10204H3.65329C3.15848 7.10204 2.70448 6.98726 2.29129 6.75771C1.8832 6.52306 1.55672 6.20934 1.31187 5.81655C1.07212 5.42377 0.952239 4.99017 0.952239 4.51576V3.71234Z" fill="#C2FFF8"/>
<path d="M12.3132 1.08015H19.9132V2.68701H16.2939V11.9609H14.6717V2.68701H12.3132V1.08015Z" fill="#C2FFF8"/>
<path d="M21.2905 1.08015H27.0445C27.5393 1.08015 27.9882 1.20258 28.3912 1.44743C28.7993 1.68719 29.1232 2.00856 29.363 2.41155C29.6079 2.81454 29.7303 3.26344 29.7303 3.75825V4.84479C29.7303 5.3396 29.6104 5.78595 29.3707 6.18384C29.136 6.58172 28.8146 6.89799 28.4065 7.13265C27.9984 7.3673 27.5419 7.48462 27.0369 7.48462L30.2812 11.9609H28.3147L25.0704 7.48462L23.7564 7.56221V5.95535L27.0445 5.87777C27.3455 5.87777 27.6006 5.77574 27.8097 5.5717C28.0189 5.36255 28.1234 5.1126 28.1234 4.82183V3.75825C28.1234 3.46238 28.0189 3.20987 27.8097 3.00073C27.6006 2.79158 27.3455 2.68701 27.0445 2.68701H22.905V11.9609H21.2905V1.08015Z" fill="#C2FFF8"/>
<path d="M34.9487 1.08015H36.9611L40.2514 10.002L39.5849 10.5414H38.6494L37.9482 8.68594H34.9105L35.492 7.07908H37.3667L35.9588 3.19202L32.7757 11.9609H31.054L34.9487 1.08015Z" fill="#C2FFF8"/>
<path d="M40.2514 1.08015H48.0304V2.68701H45.4928V11.9609H43.8706V2.68701H40.2514V1.08015Z" fill="#C2FFF8"/>
<path d="M50.4893 1.08015H58.9292V2.68701H52.1038V10.3464H58.9292V11.9609H50.4893V1.08015ZM51.3451 5.5717H57.2522V7.17856H51.3451V5.5717Z" fill="#C2FFF8"/>
<path d="M60.7732 4.14083C60.7732 3.5746 60.9186 3.06194 61.2094 2.60284C61.5052 2.13864 61.898 1.7688 62.3877 1.49334C62.8774 1.21788 63.4207 1.08015 64.0175 1.08015H69.1671V2.68701H64.0175C63.5686 2.68701 63.1835 2.82984 62.8621 3.1155C62.5459 3.39607 62.3877 3.73529 62.3877 4.13318V8.90784C62.3877 9.30573 62.5459 9.6475 62.8621 9.93317C63.1835 10.2137 63.5686 10.354 64.0175 10.354H66.5656C67.0196 10.354 67.4047 10.2137 67.721 9.93317C68.0372 9.6475 68.1954 9.30573 68.1954 8.90784V7.48462H65.2418V5.87777H69.8099V8.90019C69.8099 9.46131 69.6645 9.97398 69.3737 10.4382C69.083 10.9024 68.6902 11.2722 68.1954 11.5477C67.7057 11.8231 67.1624 11.9609 66.5656 11.9609H64.0175C63.4207 11.9609 62.8774 11.8231 62.3877 11.5477C61.898 11.2722 61.5052 10.9024 61.2094 10.4382C60.9186 9.97398 60.7732 9.46131 60.7732 8.90019V4.14083Z" fill="#C2FFF8"/>
<path d="M71.807 1.08015H73.4215V11.9609H71.807V1.08015Z" fill="#C2FFF8"/>
<path d="M75.5716 2.66807H77.1861V8.90784C77.1861 9.30573 77.3315 9.64495 77.6223 9.92552C77.913 10.2061 78.2625 10.3464 78.6706 10.3464H81.341C81.7491 10.3464 82.0985 10.2061 82.3893 9.92552C82.68 9.64495 82.8254 9.30573 82.8254 8.90784V1.08015H84.4323V8.92314C84.4323 9.47917 84.292 9.98928 84.0114 10.4535C83.736 10.9126 83.3636 11.2799 82.8943 11.5553C82.4301 11.8257 81.9123 11.9609 81.341 11.9609H78.6706C78.0992 11.9609 77.5789 11.8257 77.1096 11.5553C76.6403 11.2799 76.2654 10.9126 75.9848 10.4535C75.7093 9.98928 75.5716 9.47917 75.5716 8.92314V2.66807Z" fill="#C2FFF8"/>
<path d="M86.5748 1.08015H88.0515L91.5637 5.37275L95.0758 1.08015H96.5526V11.9609H94.9381V3.82711L92.237 7.10204H90.898L88.1893 3.82711V10.6528H86.5748V1.08015Z" fill="#C2FFF8"/>
<path d="M2.02648 9.31338L0 11.1399L2.02648 12.9663V9.31338Z" fill="#C2FFF8"/>
<path d="M8.20605 0L10.2325 1.82648L8.20605 3.65296V0Z" fill="#C2FFF8"/>
<path d="M41.1678 9.44794L40.0952 11.9564L37.7113 10.6298L41.1678 9.44794Z" fill="#C2FFF8"/>
<path d="M56.4607 4.69403L58.4872 6.52051L56.4607 8.34699V4.69403Z" fill="#C2FFF8"/>
<path d="M65.7694 4.69403L63.7429 6.52051L65.7694 8.34699V4.69403Z" fill="#C2FFF8"/>
<path d="M78.2519 3.10664L76.4254 1.08015L74.5989 3.10664L78.2519 3.10664Z" fill="#C2FFF8"/>
<path d="M89.2448 9.93438L87.4183 11.9609L85.5918 9.93438H89.2448Z" fill="#C2FFF8"/>
</svg>
